<svg width="420" height="420" viewBox="0 0 420 420" fill="none" xmlns="http://www.w3.org/2000/svg">
  <defs>
    <linearGradient id="bg" x1="60" y1="40" x2="340" y2="360" gradientUnits="userSpaceOnUse">
      <stop stop-color="#0EA5E9"/>
      <stop offset="1" stop-color="#0F172A"/>
    </linearGradient>
    <linearGradient id="shield" x1="120" y1="110" x2="300" y2="290" gradientUnits="userSpaceOnUse">
      <stop stop-color="#10B981"/>
      <stop offset="1" stop-color="#22D3EE"/>
    </linearGradient>
    <linearGradient id="layer" x1="150" y1="140" x2="270" y2="280" gradientUnits="userSpaceOnUse">
      <stop stop-color="#F59E0B"/>
      <stop offset="1" stop-color="#FBBF24"/>
    </linearGradient>
    <filter id="shadow" x="-20%" y="-20%" width="140%" height="140%">
      <feDropShadow dx="0" dy="12" stdDeviation="16" flood-color="#0B1224" flood-opacity="0.35"/>
    </filter>
  </defs>
  <rect x="26" y="26" width="368" height="368" rx="62" fill="url(#bg)" filter="url(#shadow)"/>
  <path d="M210 86 118 132v96c0 48 36 92 92 106 56-14 92-58 92-106v-96L210 86Z" fill="#0B1224" opacity=".35"/>
  <path d="M210 96 128 138v88c0 44 32 84 82 98 50-14 82-54 82-98v-88L210 96Z" fill="url(#shield)"/>
  <path d="M210 138 154 166v60c0 32 22 60 56 70 34-10 56-38 56-70v-60l-56-28Z" fill="#0B1224" opacity=".25"/>
  <path d="M210 146 162 170v52c0 28 18 52 48 60 30-8 48-32 48-60v-52l-48-24Z" fill="url(#layer)"/>
  <g stroke="#0F172A" stroke-width="6" stroke-linecap="round" opacity=".65">
    <path d="M168 204h84"/>
    <path d="M184 232h52"/>
    <path d="M196 176h28"/>
  </g>
  <g fill="#F8FAFC">
    <circle cx="150" cy="182" r="8"/>
    <circle cx="270" cy="182" r="8"/>
    <circle cx="210" cy="264" r="8"/>
  </g>
  <g stroke="#F8FAFC" stroke-width="6" opacity=".75">
    <path d="M150 182 210 144 270 182 270 234 210 270 150 234Z" fill="none"/>
  </g>
  <text x="210" y="350" text-anchor="middle" font-family="Inter, 'Segoe UI', sans-serif" font-size="30" font-weight="700" fill="#F8FAFC" opacity=".9">
    NEO SERVICE LAYER
  </text>
</svg>
